<svg id="レイヤー_1" data-name="レイヤー 1" xmlns="http://www.w3.org/2000/svg" width="38" height="76" viewBox="0 0 38 76"><defs><style>.cls-1{fill:#919696;}.cls-2{fill:#fff;}</style></defs><title>svg</title><path class="cls-1" d="M19,38A19,19,0,1,1,38,19,19.021,19.021,0,0,1,19,38ZM19,2A17,17,0,1,0,36,19,17.019,17.019,0,0,0,19,2Z"/><polygon class="cls-1" points="17 13 25 19 17 25 17 13"/><path class="cls-1" d="M19,76A19,19,0,1,1,38,57,19.021,19.021,0,0,1,19,76Z"/><polygon class="cls-2" points="17 51 25 57 17 63 17 51"/></svg>